<?xml version='1.0' encoding='utf-8'?>
<svg xmlns:xlink="http://www.w3.org/1999/xlink" xmlns="http://www.w3.org/2000/svg" id="chart-e3291326-f936-4b34-8253-b7659c1929d8" class="pygal-chart" viewBox="0 0 300 200" width="300" height="200"><!--Generated with pygal 2.0.8 (lxml) ©Kozea 2011-2015 on 2015-11-06--><!--http://pygal.org--><!--http://github.com/Kozea/pygal--><defs><style type="text/css">#chart-e3291326-f936-4b34-8253-b7659c1929d8{-webkit-user-select:none;-webkit-font-smoothing:antialiased;font-family:Consolas,"Liberation Mono",Menlo,Courier,monospace}#chart-e3291326-f936-4b34-8253-b7659c1929d8 .title{font-family:Consolas,"Liberation Mono",Menlo,Courier,monospace;font-size:16px}#chart-e3291326-f936-4b34-8253-b7659c1929d8 .legends .legend text{font-family:Consolas,"Liberation Mono",Menlo,Courier,monospace;font-size:14px}#chart-e3291326-f936-4b34-8253-b7659c1929d8 .axis text{font-family:Consolas,"Liberation Mono",Menlo,Courier,monospace;font-size:10px}#chart-e3291326-f936-4b34-8253-b7659c1929d8 .axis text.major{font-family:Consolas,"Liberation Mono",Menlo,Courier,monospace;font-size:10px}#chart-e3291326-f936-4b34-8253-b7659c1929d8 .text-overlay text.value{font-family:Consolas,"Liberation Mono",Menlo,Courier,monospace;font-size:16px}#chart-e3291326-f936-4b34-8253-b7659c1929d8 .text-overlay text.label{font-family:Consolas,"Liberation Mono",Menlo,Courier,monospace;font-size:10px}#chart-e3291326-f936-4b34-8253-b7659c1929d8 .tooltip{font-family:Consolas,"Liberation Mono",Menlo,Courier,monospace;font-size:14px}#chart-e3291326-f936-4b34-8253-b7659c1929d8 text.no_data{font-family:Consolas,"Liberation Mono",Menlo,Courier,monospace;font-size:64px}
#chart-e3291326-f936-4b34-8253-b7659c1929d8{background-color:#fcfcfc}#chart-e3291326-f936-4b34-8253-b7659c1929d8 path,#chart-e3291326-f936-4b34-8253-b7659c1929d8 line,#chart-e3291326-f936-4b34-8253-b7659c1929d8 rect,#chart-e3291326-f936-4b34-8253-b7659c1929d8 circle{-webkit-transition:400ms ease-in;-moz-transition:400ms ease-in;transition:400ms ease-in}#chart-e3291326-f936-4b34-8253-b7659c1929d8 .graph &gt; .background{fill:#fcfcfc}#chart-e3291326-f936-4b34-8253-b7659c1929d8 .plot &gt; .background{fill:#ffffff}#chart-e3291326-f936-4b34-8253-b7659c1929d8 .graph{fill:#707070}#chart-e3291326-f936-4b34-8253-b7659c1929d8 text.no_data{fill:#404040}#chart-e3291326-f936-4b34-8253-b7659c1929d8 .title{fill:#404040}#chart-e3291326-f936-4b34-8253-b7659c1929d8 .legends .legend text{fill:#707070}#chart-e3291326-f936-4b34-8253-b7659c1929d8 .legends .legend:hover text{fill:#404040}#chart-e3291326-f936-4b34-8253-b7659c1929d8 .axis .line{stroke:#404040}#chart-e3291326-f936-4b34-8253-b7659c1929d8 .axis .guide.line{stroke:#909090}#chart-e3291326-f936-4b34-8253-b7659c1929d8 .axis .major.line{stroke:#707070}#chart-e3291326-f936-4b34-8253-b7659c1929d8 .axis text.major{fill:#404040}#chart-e3291326-f936-4b34-8253-b7659c1929d8 .axis.y .guides:hover .guide.line,#chart-e3291326-f936-4b34-8253-b7659c1929d8 .line-graph .axis.x .guides:hover .guide.line,#chart-e3291326-f936-4b34-8253-b7659c1929d8 .stackedline-graph .axis.x .guides:hover .guide.line,#chart-e3291326-f936-4b34-8253-b7659c1929d8 .xy-graph .axis.x .guides:hover .guide.line{stroke:#404040}#chart-e3291326-f936-4b34-8253-b7659c1929d8 .axis .guides:hover text{fill:#404040}#chart-e3291326-f936-4b34-8253-b7659c1929d8 .reactive{fill-opacity:.8}#chart-e3291326-f936-4b34-8253-b7659c1929d8 .reactive.active,#chart-e3291326-f936-4b34-8253-b7659c1929d8 .active .reactive{fill-opacity:.9;stroke-width:4}#chart-e3291326-f936-4b34-8253-b7659c1929d8 .series text{fill:#404040}#chart-e3291326-f936-4b34-8253-b7659c1929d8 .tooltip rect{fill:#ffffff;stroke:#404040;-webkit-transition:opacity 400ms ease-in;-moz-transition:opacity 400ms ease-in;transition:opacity 400ms ease-in}#chart-e3291326-f936-4b34-8253-b7659c1929d8 .tooltip .label{fill:#707070}#chart-e3291326-f936-4b34-8253-b7659c1929d8 .tooltip .label{fill:#707070}#chart-e3291326-f936-4b34-8253-b7659c1929d8 .tooltip .legend{font-size:.8em;fill:#909090}#chart-e3291326-f936-4b34-8253-b7659c1929d8 .tooltip .x_label{font-size:.6em;fill:#404040}#chart-e3291326-f936-4b34-8253-b7659c1929d8 .tooltip .xlink{font-size:.5em;text-decoration:underline}#chart-e3291326-f936-4b34-8253-b7659c1929d8 .tooltip .value{font-size:1.5em}#chart-e3291326-f936-4b34-8253-b7659c1929d8 .map-element{fill:#ffffff;stroke:#909090 !important}#chart-e3291326-f936-4b34-8253-b7659c1929d8 .map-element .reactive{fill-opacity:inherit}#chart-e3291326-f936-4b34-8253-b7659c1929d8 .color-0,#chart-e3291326-f936-4b34-8253-b7659c1929d8 .color-0 a:visited{stroke:#2980b9;fill:#2980b9}#chart-e3291326-f936-4b34-8253-b7659c1929d8 .color-1,#chart-e3291326-f936-4b34-8253-b7659c1929d8 .color-1 a:visited{stroke:#3229b9;fill:#3229b9}#chart-e3291326-f936-4b34-8253-b7659c1929d8 .text-overlay .color-0 text{fill:black}#chart-e3291326-f936-4b34-8253-b7659c1929d8 .text-overlay .color-1 text{fill:black}
#chart-e3291326-f936-4b34-8253-b7659c1929d8 text.no_data{text-anchor:middle}#chart-e3291326-f936-4b34-8253-b7659c1929d8 .guide.line{fill:none}#chart-e3291326-f936-4b34-8253-b7659c1929d8 .centered{text-anchor:middle}#chart-e3291326-f936-4b34-8253-b7659c1929d8 .title{text-anchor:middle}#chart-e3291326-f936-4b34-8253-b7659c1929d8 .legends .legend text{fill-opacity:1}#chart-e3291326-f936-4b34-8253-b7659c1929d8 .axis.x text{text-anchor:middle}#chart-e3291326-f936-4b34-8253-b7659c1929d8 .axis.x:not(.web) text[transform]{text-anchor:start}#chart-e3291326-f936-4b34-8253-b7659c1929d8 .axis.y text{text-anchor:end}#chart-e3291326-f936-4b34-8253-b7659c1929d8 .axis.y2 text{text-anchor:start}#chart-e3291326-f936-4b34-8253-b7659c1929d8 .axis .guide.line{stroke-dasharray:4,4}#chart-e3291326-f936-4b34-8253-b7659c1929d8 .axis .major.guide.line{stroke-dasharray:6,6}#chart-e3291326-f936-4b34-8253-b7659c1929d8 .horizontal .axis.y .guide.line,#chart-e3291326-f936-4b34-8253-b7659c1929d8 .horizontal .axis.y2 .guide.line,#chart-e3291326-f936-4b34-8253-b7659c1929d8 .vertical .axis.x .guide.line{opacity:0}#chart-e3291326-f936-4b34-8253-b7659c1929d8 .horizontal .axis.always_show .guide.line,#chart-e3291326-f936-4b34-8253-b7659c1929d8 .vertical .axis.always_show .guide.line{opacity:1 !important}#chart-e3291326-f936-4b34-8253-b7659c1929d8 .axis.y .guides:hover .guide.line,#chart-e3291326-f936-4b34-8253-b7659c1929d8 .axis.y2 .guides:hover .guide.line,#chart-e3291326-f936-4b34-8253-b7659c1929d8 .axis.x .guides:hover .guide.line{opacity:1}#chart-e3291326-f936-4b34-8253-b7659c1929d8 .axis .guides:hover text{opacity:1}#chart-e3291326-f936-4b34-8253-b7659c1929d8 .nofill{fill:none}#chart-e3291326-f936-4b34-8253-b7659c1929d8 .subtle-fill{fill-opacity:.2}#chart-e3291326-f936-4b34-8253-b7659c1929d8 .dot{stroke-width:1px;fill-opacity:1}#chart-e3291326-f936-4b34-8253-b7659c1929d8 .dot.active{stroke-width:5px}#chart-e3291326-f936-4b34-8253-b7659c1929d8 .dot.negative{fill:transparent}#chart-e3291326-f936-4b34-8253-b7659c1929d8 text,#chart-e3291326-f936-4b34-8253-b7659c1929d8 tspan{stroke:none !important}#chart-e3291326-f936-4b34-8253-b7659c1929d8 .series text.active{opacity:1}#chart-e3291326-f936-4b34-8253-b7659c1929d8 .tooltip rect{fill-opacity:.95;stroke-width:.5}#chart-e3291326-f936-4b34-8253-b7659c1929d8 .tooltip text{fill-opacity:1}</style><script type="text/javascript">window.pygal = window.pygal || {};window.pygal.config = window.pygal.config || {};window.pygal.config['e3291326-f936-4b34-8253-b7659c1929d8'] = {"show_only_major_dots": false, "js": ["//kozea.github.io/pygal.js/2.0.x/pygal-tooltips.min.js"], "tooltip_fancy_mode": true, "legend_at_bottom_columns": null, "show_minor_y_labels": true, "x_value_formatter": null, "disable_xml_declaration": false, "inverse_y_axis": false, "x_label_rotation": 25, "half_pie": false, "y_labels": null, "value_formatter": null, "human_readable": false, "margin_right": null, "title": null, "width": 300, "x_labels_major_every": null, "print_zeroes": true, "y_labels_major_every": null, "interpolation_parameters": {}, "legend_at_bottom": false, "show_minor_x_labels": true, "order_min": null, "print_labels": false, "show_y_guides": true, "include_x_axis": false, "stroke": true, "x_labels_major": null, "y_labels_major": null, "min_scale": 4, "dots_size": 2.5, "range": null, "x_labels": ["one", "two", "three", "four", "five"], "explicit_size": true, "xrange": null, "margin": 20, "y_title": null, "y_label_rotation": 0, "margin_top": null, "print_values": false, "pretty_print": false, "truncate_label": null, "height": 200, "interpolate": "cubic", "fill": true, "max_scale": 16, "y_labels_major_count": null, "legends": ["alpha", "beta"], "stroke_style": null, "logarithmic": false, "inner_radius": 0, "margin_left": null, "spacing": 10, "box_mode": "extremes", "truncate_legend": null, "zero": 0, "no_prefix": false, "force_uri_protocol": "https", "legend_box_size": 12, "show_legend": true, "show_x_guides": false, "interpolation_precision": 250, "show_y_labels": true, "show_dots": true, "css": ["file://style.css", "file://graph.css"], "rounded_bars": null, "x_title": null, "x_labels_major_count": null, "stack_from_top": false, "tooltip_border_radius": 0, "secondary_range": null, "no_data_text": "No data", "margin_bottom": null, "strict": false, "missing_value_fill_truncation": "x", "show_x_labels": true, "style": {"background": "#fcfcfc", "legend_font_family": "Consolas, \"Liberation Mono\", Menlo, Courier, monospace", "value_label_font_size": 10, "colors": ["#2980b9", "#3229b9", "#9229b9", "#b92980", "#b93229", "#b99229", "#80b929", "#29b932", "#29b992", "#2980b9"], "opacity": ".8", "major_label_font_family": "Consolas, \"Liberation Mono\", Menlo, Courier, monospace", "title_font_family": "Consolas, \"Liberation Mono\", Menlo, Courier, monospace", "label_font_size": 10, "opacity_hover": ".9", "no_data_font_size": 64, "foreground_subtle": "#909090", "no_data_font_family": "Consolas, \"Liberation Mono\", Menlo, Courier, monospace", "tooltip_font_family": "Consolas, \"Liberation Mono\", Menlo, Courier, monospace", "guide_stroke_dasharray": "4,4", "value_font_size": 16, "major_label_font_size": 10, "label_font_family": "Consolas, \"Liberation Mono\", Menlo, Courier, monospace", "foreground_strong": "#404040", "font_family": "Consolas, \"Liberation Mono\", Menlo, Courier, monospace", "transition": "400ms ease-in", "major_guide_stroke_dasharray": "6,6", "value_colors": [], "foreground": "#707070", "plot_background": "#ffffff", "value_label_font_family": "Consolas, \"Liberation Mono\", Menlo, Courier, monospace", "title_font_size": 16, "legend_font_size": 14, "tooltip_font_size": 14, "value_font_family": "Consolas, \"Liberation Mono\", Menlo, Courier, monospace"}}</script><script type="text/javascript" xlink:href="https://kozea.github.io/pygal.js/2.0.x/pygal-tooltips.min.js"/></defs><title>Pygal</title><g class="graph line-graph vertical"><rect class="background" height="200" width="300" x="0" y="0"/><g class="plot" transform="translate(112, 20)"><rect class="background" height="137.321452147779" width="160.8107663889005" x="0" y="0"/><g class="axis y"><g class="guides"><path class="major line" d="M0.000000 131.164745 h160.810766"/><text class="major" x="-5" y="134.66474505919916">0.0</text><title>0.0</title></g><g class="guides"><path class="guide line" d="M0.000000 99.033758 h160.810766"/><text class="" x="-5" y="102.53375808357137">1.0</text><title>1.0</title></g><g class="guides"><path class="guide line" d="M0.000000 66.902771 h160.810766"/><text class="" x="-5" y="70.40277110794361">2.0</text><title>2.0</title></g><g class="guides"><path class="guide line" d="M0.000000 34.771784 h160.810766"/><text class="" x="-5" y="38.271784132315844">3.0</text><title>3.0</title></g><g class="guides"><path class="guide line" d="M0.000000 2.640797 h160.810766"/><text class="" x="-5" y="6.140797156688052">4.0</text><title>4.0</title></g></g><g class="axis x"><g class="guides"><path class="line" d="M3.092515 0.000000 v137.321452"/><text class="" x="3.0925147382480866" y="152.321452147779" transform="rotate(25 3.092515 152.321452)">one</text></g><g class="guides"><path class="guide line" d="M41.748949 0.000000 v137.321452"/><text class="" x="41.748948966349175" y="152.321452147779" transform="rotate(25 41.748949 152.321452)">two</text></g><g class="guides"><path class="guide line" d="M80.405383 0.000000 v137.321452"/><text class="" x="80.40538319445025" y="152.321452147779" transform="rotate(25 80.405383 152.321452)">three</text></g><g class="guides"><path class="guide line" d="M119.061817 0.000000 v137.321452"/><text class="" x="119.06181742255134" y="152.321452147779" transform="rotate(25 119.061817 152.321452)">four</text></g><g class="guides"><path class="guide line" d="M157.718252 0.000000 v137.321452"/><text class="" x="157.7182516506524" y="152.321452147779" transform="rotate(25 157.718252 152.321452)">five</text></g></g><g class="series serie-0 color-0"><path class="line reactive" d="M3.092515 131.164745 L3.092515 99.033758 3.247140 98.939660 3.401766 98.845558 3.556392 98.751450 3.711018 98.657331 3.865643 98.563200 4.020269 98.469052 4.174895 98.374884 4.329521 98.280693 4.484146 98.186476 4.638772 98.092228 4.793398 97.997948 4.948024 97.903632 5.102649 97.809275 5.257275 97.714876 5.411901 97.620431 5.566527 97.525936 5.721152 97.431388 5.875778 97.336784 6.030404 97.242120 6.185029 97.147394 6.339655 97.052601 6.494281 96.957739 6.648907 96.862805 6.803532 96.767794 6.958158 96.672704 7.112784 96.577532 7.267410 96.482273 7.422035 96.386926 7.576661 96.291485 7.731287 96.195949 7.885913 96.100314 8.040538 96.004576 8.195164 95.908733 8.349790 95.812781 8.504416 95.716716 8.659041 95.620535 8.813667 95.524236 8.968293 95.427814 9.122918 95.331266 9.277544 95.234590 9.432170 95.137782 9.586796 95.040838 9.741421 94.943755 9.896047 94.846530 10.050673 94.749160 10.205299 94.651641 10.359924 94.553970 10.514550 94.456143 10.669176 94.358158 10.823802 94.260011 10.978427 94.161699 11.133053 94.063219 11.287679 93.964566 11.442305 93.865738 11.596930 93.766732 11.751556 93.667544 11.906182 93.568171 12.060807 93.468609 12.215433 93.368856 12.370059 93.268908 12.524685 93.168762 12.679310 93.068414 12.833936 92.967861 12.988562 92.867100 13.143188 92.766127 13.297813 92.664940 13.452439 92.563534 13.607065 92.461907 13.761691 92.360055 13.916316 92.257976 14.070942 92.155664 14.225568 92.053119 14.380194 91.950335 14.534819 91.847310 14.689445 91.744040 14.844071 91.640523 14.998696 91.536754 15.153322 91.432731 15.307948 91.328451 15.462574 91.223909 15.617199 91.119102 15.771825 91.014028 15.926451 90.908683 16.081077 90.803064 16.235702 90.697167 16.390328 90.590989 16.544954 90.484527 16.699580 90.377777 16.854205 90.270737 17.008831 90.163402 17.163457 90.055770 17.318083 89.947838 17.472708 89.839601 17.627334 89.731057 17.781960 89.622202 17.936585 89.513033 18.091211 89.403547 18.245837 89.293740 18.400463 89.183610 18.555088 89.073152 18.709714 88.962364 18.864340 88.851242 19.018966 88.739783 19.173591 88.627983 19.328217 88.515840 19.482843 88.403350 19.637469 88.290509 19.792094 88.177315 19.946720 88.063764 20.101346 87.949853 20.255972 87.835578 20.410597 87.720936 20.565223 87.605924 20.719849 87.490539 20.874474 87.374777 21.029100 87.258635 21.183726 87.142109 21.338352 87.025197 21.492977 86.907895 21.647603 86.790200 21.802229 86.672108 21.956855 86.553616 22.111480 86.434721 22.266106 86.315419 22.420732 86.195707 22.575358 86.075583 22.729983 85.955042 22.884609 85.834081 23.039235 85.712698 23.193861 85.590888 23.348486 85.468648 23.503112 85.345975 23.657738 85.222866 23.812363 85.099318 23.966989 84.975327 24.121615 84.850889 24.276241 84.726002 24.430866 84.600663 24.585492 84.474867 24.740118 84.348612 24.894744 84.221894 25.049369 84.094710 25.203995 83.967057 25.358621 83.838931 25.513247 83.710330 25.667872 83.581249 25.822498 83.451686 25.977124 83.321636 26.131750 83.191098 26.286375 83.060067 26.441001 82.928541 26.595627 82.796515 26.750252 82.663988 26.904878 82.530954 27.059504 82.397412 27.214130 82.263357 27.368755 82.128787 27.523381 81.993698 27.678007 81.858086 27.832633 81.721950 27.987258 81.585284 28.141884 81.448086 28.296510 81.310353 28.451136 81.172081 28.605761 81.033268 28.760387 80.893909 28.915013 80.754001 29.069639 80.613541 29.224264 80.472527 29.378890 80.330953 29.533516 80.188818 29.688141 80.046118 29.842767 79.902849 29.997393 79.759008 30.152019 79.614593 30.306644 79.469599 30.461270 79.324023 30.615896 79.177863 30.770522 79.031114 30.925147 78.883774 31.079773 78.735838 31.234399 78.587305 31.389025 78.438170 31.543650 78.288430 31.698276 78.138082 31.852902 77.987123 32.007528 77.835549 32.162153 77.683357 32.316779 77.530544 32.471405 77.377106 32.626030 77.223040 32.780656 77.068343 32.935282 76.913011 33.089908 76.757041 33.244533 76.600431 33.399159 76.443176 33.553785 76.285273 33.708411 76.126719 33.863036 75.967511 34.017662 75.807645 34.172288 75.647118 34.326914 75.485926 34.481539 75.324068 34.636165 75.161538 34.790791 74.998334 34.945417 74.834452 35.100042 74.669890 35.254668 74.504644 35.409294 74.338710 35.563919 74.172086 35.718545 74.004767 35.873171 73.836751 36.027797 73.668035 36.182422 73.498614 36.337048 73.328487 36.491674 73.157648 36.646300 72.986096 36.800925 72.813827 36.955551 72.640837 37.110177 72.467124 37.264803 72.292683 37.419428 72.117512 37.574054 71.941607 37.728680 71.764966 37.883306 71.587584 38.037931 71.409458 38.192557 71.230586 38.347183 71.050963 38.501808 70.870587 38.656434 70.689454 38.811060 70.507561 38.965686 70.324904 39.120311 70.141481 39.274937 69.957287 39.429563 69.772321 39.584189 69.586577 39.738814 69.400054 39.893440 69.212747 40.048066 69.024654 40.202692 68.835771 40.357317 68.646095 40.511943 68.455622 40.666569 68.264350 40.821195 68.072274 40.975820 67.879392 41.130446 67.685701 41.285072 67.491196 41.439697 67.295875 41.594323 67.099735 41.748949 66.902771 41.903575 66.704985 42.058200 66.506389 42.212826 66.306999 42.367452 66.106833 42.522078 65.905907 42.676703 65.704238 42.831329 65.501841 42.985955 65.298733 43.140581 65.094932 43.295206 64.890453 43.449832 64.685313 43.604458 64.479529 43.759084 64.273117 43.913709 64.066093 44.068335 63.858475 44.222961 63.650278 44.377586 63.441519 44.532212 63.232215 44.686838 63.022382 44.841464 62.812037 44.996089 62.601197 45.150715 62.389877 45.305341 62.178094 45.459967 61.965865 45.614592 61.753207 45.769218 61.540135 45.923844 61.326667 46.078470 61.112819 46.233095 60.898607 46.387721 60.684048 46.542347 60.469159 46.696973 60.253956 46.851598 60.038455 47.006224 59.822673 47.160850 59.606627 47.315475 59.390333 47.470101 59.173808 47.624727 58.957068 47.779353 58.740130 47.933978 58.523010 48.088604 58.305724 48.243230 58.088290 48.397856 57.870724 48.552481 57.653042 48.707107 57.435261 48.861733 57.217397 49.016359 56.999468 49.170984 56.781488 49.325610 56.563476 49.480236 56.345447 49.634862 56.127418 49.789487 55.909405 49.944113 55.691426 50.098739 55.473496 50.253364 55.255633 50.407990 55.037852 50.562616 54.820170 50.717242 54.602603 50.871867 54.385169 51.026493 54.167884 51.181119 53.950764 51.335745 53.733826 51.490370 53.517085 51.644996 53.300560 51.799622 53.084266 51.954248 52.868220 52.108873 52.652439 52.263499 52.436938 52.418125 52.221735 52.572751 52.006846 52.727376 51.792287 52.882002 51.578075 53.036628 51.364227 53.191253 51.150759 53.345879 50.937687 53.500505 50.725028 53.655131 50.512800 53.809756 50.301017 53.964382 50.089697 54.119008 49.878856 54.273634 49.668511 54.428259 49.458678 54.582885 49.249374 54.737511 49.040616 54.892137 48.832419 55.046762 48.624800 55.201388 48.417777 55.356014 48.211364 55.510640 48.005580 55.665265 47.800440 55.819891 47.595961 55.974517 47.392160 56.129142 47.189053 56.283768 46.986656 56.438394 46.784986 56.593020 46.584060 56.747645 46.383894 56.902271 46.184505 57.056897 45.985909 57.211523 45.788123 57.366148 45.591162 57.520774 45.395045 57.675400 45.199787 57.830026 45.005404 57.984651 44.811914 58.139277 44.619333 58.293903 44.427677 58.448529 44.236963 58.603154 44.047208 58.757780 43.858427 58.912406 43.670638 59.067032 43.483857 59.221657 43.298100 59.376283 43.113385 59.530909 42.929727 59.685534 42.747143 59.840160 42.565650 59.994786 42.385264 60.149412 42.206001 60.304037 42.027879 60.458663 41.850913 60.613289 41.675121 60.767915 41.500519 60.922540 41.327122 61.077166 41.154949 61.231792 40.984015 61.386418 40.814337 61.541043 40.645931 61.695669 40.478814 61.850295 40.313002 62.004921 40.148513 62.159546 39.985362 62.314172 39.823566 62.468798 39.663141 62.623423 39.504105 62.778049 39.346473 62.932675 39.190262 63.087301 39.035489 63.241926 38.882170 63.396552 38.730322 63.551178 38.579961 63.705804 38.431103 63.860429 38.283766 64.015055 38.137966 64.169681 37.993719 64.324307 37.851042 64.478932 37.709951 64.633558 37.570463 64.788184 37.432594 64.942810 37.296362 65.097435 37.161782 65.252061 37.028870 65.406687 36.897645 65.561312 36.768121 65.715938 36.640316 65.870564 36.514246 66.025190 36.389927 66.179815 36.267377 66.334441 36.146611 66.489067 36.027647 66.643693 35.910500 66.798318 35.795187 66.952944 35.681725 67.107570 35.570131 67.262196 35.460420 67.416821 35.352610 67.571447 35.246716 67.726073 35.142756 67.880699 35.040745 68.035324 34.940701 68.189950 34.842640 68.344576 34.746579 68.499201 34.652533 68.653827 34.560520 68.808453 34.470556 68.963079 34.382658 69.117704 34.296841 69.272330 34.213124 69.426956 34.131521 69.581582 34.052050 69.736207 33.974727 69.890833 33.899569 70.045459 33.826592 70.200085 33.755813 70.354710 33.687249 70.509336 33.620915 70.663962 33.556828 70.818588 33.495005 70.973213 33.435463 71.127839 33.378217 71.282465 33.323285 71.437090 33.270683 71.591716 33.220428 71.746342 33.172535 71.900968 33.127022 72.055593 33.083905 72.210219 33.043200 72.364845 33.004925 72.519471 32.969095 72.674096 32.935728 72.828722 32.904839 72.983348 32.876445 73.137974 32.850563 73.292599 32.827209 73.447225 32.806401 73.601851 32.788153 73.756477 32.772483 73.911102 32.759408 74.065728 32.748943 74.220354 32.741106 74.374979 32.735912 74.529605 32.733380 74.684231 32.733524 74.838857 32.736361 74.993482 32.741909 75.148108 32.750183 75.302734 32.761200 75.457360 32.774977 75.611985 32.791530 75.766611 32.810876 75.921237 32.833031 76.075863 32.858011 76.230488 32.885834 76.385114 32.916515 76.539740 32.950072 76.694366 32.986520 76.848991 33.025877 77.003617 33.068159 77.158243 33.113382 77.312868 33.161563 77.467494 33.212718 77.622120 33.266864 77.776746 33.324018 77.931371 33.384196 78.085997 33.447414 78.240623 33.513689 78.395249 33.583038 78.549874 33.655477 78.704500 33.731022 78.859126 33.809691 79.013752 33.891499 79.168377 33.976463 79.323003 34.064600 79.477629 34.155927 79.632255 34.250459 79.786880 34.348213 79.941506 34.449206 80.096132 34.553455 80.250757 34.660975 80.405383 34.771784 80.560009 34.885891 80.714635 35.003276 80.869260 35.123916 81.023886 35.247782 81.178512 35.374851 81.333138 35.505095 81.487763 35.638490 81.642389 35.775009 81.797015 35.914627 81.951641 36.057317 82.106266 36.203055 82.260892 36.351814 82.415518 36.503569 82.570144 36.658294 82.724769 36.815962 82.879395 36.976549 83.034021 37.140028 83.188646 37.306374 83.343272 37.475561 83.497898 37.647563 83.652524 37.822354 83.807149 37.999909 83.961775 38.180201 84.116401 38.363206 84.271027 38.548896 84.425652 38.737248 84.580278 38.928234 84.734904 39.121828 84.889530 39.318006 85.044155 39.516741 85.198781 39.718008 85.353407 39.921781 85.508033 40.128033 85.662658 40.336740 85.817284 40.547875 85.971910 40.761413 86.126535 40.977328 86.281161 41.195594 86.435787 41.416185 86.590413 41.639076 86.745038 41.864240 86.899664 42.091653 87.054290 42.321287 87.208916 42.553119 87.363541 42.787120 87.518167 43.023267 87.672793 43.261533 87.827419 43.501892 87.982044 43.744319 88.136670 43.988787 88.291296 44.235272 88.445922 44.483746 88.600547 44.734185 88.755173 44.986563 88.909799 45.240854 89.064424 45.497031 89.219050 45.755071 89.373676 46.014945 89.528302 46.276629 89.682927 46.540098 89.837553 46.805324 89.992179 47.072283 90.146805 47.340949 90.301430 47.611295 90.456056 47.883297 90.610682 48.156928 90.765308 48.432162 90.919933 48.708975 91.074559 48.987339 91.229185 49.267229 91.383811 49.548620 91.538436 49.831485 91.693062 50.115800 91.847688 50.401537 92.002313 50.688672 92.156939 50.977178 92.311565 51.267030 92.466191 51.558202 92.620816 51.850668 92.775442 52.144403 92.930068 52.439380 93.084694 52.735574 93.239319 53.032959 93.393945 53.331510 93.548571 53.631200 93.703197 53.932004 93.857822 54.233896 94.012448 54.536850 94.167074 54.840840 94.321700 55.145841 94.476325 55.451827 94.630951 55.758772 94.785577 56.066650 94.940202 56.375436 95.094828 56.685103 95.249454 56.995627 95.404080 57.306981 95.558705 57.619139 95.713331 57.932076 95.867957 58.245765 96.022583 58.560182 96.177208 58.875300 96.331834 59.191093 96.486460 59.507537 96.641086 59.824604 96.795711 60.142269 96.950337 60.460507 97.104963 60.779292 97.259589 61.098597 97.414214 61.418397 97.568840 61.738667 97.723466 62.059380 97.878091 62.380511 98.032717 62.702034 98.187343 63.023923 98.341969 63.346152 98.496594 63.668697 98.651220 63.991529 98.805846 64.314626 98.960472 64.637959 99.115097 64.961504 99.269723 65.285234 99.424349 65.609125 99.578975 65.933149 99.733600 66.257283 99.888226 66.581498 100.042852 66.905771 100.197478 67.230074 100.352103 67.554383 100.506729 67.878672 100.661355 68.202914 100.815980 68.527084 100.970606 68.851156 101.125232 69.175105 101.279858 69.498904 101.434483 69.822529 101.589109 70.145952 101.743735 70.469148 101.898361 70.792092 102.052986 71.114758 102.207612 71.437120 102.362238 71.759151 102.516864 72.080828 102.671489 72.402123 102.826115 72.723010 102.980741 73.043465 103.135367 73.363461 103.289992 73.682973 103.444618 74.001974 103.599244 74.320439 103.753869 74.638342 103.908495 74.955658 104.063121 75.272360 104.217747 75.588424 104.372372 75.903822 104.526998 76.218529 104.681624 76.532520 104.836250 76.845769 104.990875 77.158250 105.145501 77.469937 105.300127 77.780804 105.454753 78.090826 105.609378 78.399976 105.764004 78.708230 105.918630 79.015561 106.073256 79.321944 106.227881 79.627352 106.382507 79.931760 106.537133 80.235142 106.691758 80.537473 106.846384 80.838726 107.001010 81.138876 107.155636 81.437897 107.310261 81.735764 107.464887 82.032450 107.619513 82.327929 107.774139 82.622177 107.928764 82.915166 108.083390 83.206872 108.238016 83.497269 108.392642 83.786331 108.547267 84.074031 108.701893 84.360345 108.856519 84.645246 109.011145 84.928709 109.165770 85.210708 109.320396 85.491217 109.475022 85.770211 109.629647 86.047663 109.784273 86.323548 109.938899 86.597839 110.093525 86.870513 110.248150 87.141541 110.402776 87.410899 110.557402 87.678562 110.712028 87.944502 110.866653 88.208695 111.021279 88.471114 111.175905 88.731734 111.330531 88.990530 111.485156 89.247474 111.639782 89.502542 111.794408 89.755708 111.949034 90.006945 112.103659 90.256229 112.258285 90.503533 112.412911 90.748832 112.567536 90.992099 112.722162 91.233309 112.876788 91.472437 113.031414 91.709456 113.186039 91.944341 113.340665 92.177066 113.495291 92.407605 113.649917 92.635932 113.804542 92.862022 113.959168 93.085849 114.113794 93.307387 114.268420 93.526610 114.423045 93.743492 114.577671 93.958008 114.732297 94.170132 114.886923 94.379838 115.041548 94.587101 115.196174 94.791894 115.350800 94.994192 115.505425 95.193969 115.660051 95.391199 115.814677 95.585857 115.969303 95.777916 116.123928 95.967351 116.278554 96.154137 116.433180 96.338246 116.587806 96.519655 116.742431 96.698336 116.897057 96.874264 117.051683 97.047413 117.206309 97.217758 117.360934 97.385272 117.515560 97.549931 117.670186 97.711707 117.824812 97.870576 117.979437 98.026512 118.134063 98.179488 118.288689 98.329479 118.443314 98.476459 118.597940 98.620403 118.752566 98.761285 118.907192 98.899078 119.061817 99.033758 119.216443 99.165304 119.371069 99.293724 119.525695 99.419028 119.680320 99.541231 119.834946 99.660344 119.989572 99.776381 120.144198 99.889353 120.298823 99.999273 120.453449 100.106155 120.608075 100.210009 120.762701 100.310850 120.917326 100.408689 121.071952 100.503539 121.226578 100.595412 121.381203 100.684322 121.535829 100.770281 121.690455 100.853301 121.845081 100.933394 121.999706 101.010574 122.154332 101.084853 122.308958 101.156244 122.463584 101.224759 122.618209 101.290410 122.772835 101.353210 122.927461 101.413172 123.082087 101.470309 123.236712 101.524632 123.391338 101.576155 123.545964 101.624890 123.700590 101.670849 123.855215 101.714046 124.009841 101.754492 124.164467 101.792200 124.319092 101.827183 124.473718 101.859453 124.628344 101.889024 124.782970 101.915907 124.937595 101.940114 125.092221 101.961660 125.246847 101.980555 125.401473 101.996813 125.556098 102.010447 125.710724 102.021468 125.865350 102.029890 126.019976 102.035724 126.174601 102.038984 126.329227 102.039682 126.483853 102.037831 126.638479 102.033443 126.793104 102.026530 126.947730 102.017106 127.102356 102.005182 127.256981 101.990772 127.411607 101.973888 127.566233 101.954543 127.720859 101.932748 127.875484 101.908518 128.030110 101.881863 128.184736 101.852797 128.339362 101.821332 128.493987 101.787482 128.648613 101.751257 128.803239 101.712672 128.957865 101.671738 129.112490 101.628468 129.267116 101.582875 129.421742 101.534971 129.576368 101.484769 129.730993 101.432282 129.885619 101.377521 130.040245 101.320499 130.194870 101.261230 130.349496 101.199725 130.504122 101.135997 130.658748 101.070059 130.813373 101.001924 130.967999 100.931603 131.122625 100.859109 131.277251 100.784455 131.431876 100.707654 131.586502 100.628718 131.741128 100.547659 131.895754 100.464491 132.050379 100.379225 132.205005 100.291874 132.359631 100.202452 132.514257 100.110969 132.668882 100.017440 132.823508 99.921876 132.978134 99.824291 133.132759 99.724695 133.287385 99.623103 133.442011 99.519527 133.596637 99.413979 133.751262 99.306472 133.905888 99.197018 134.060514 99.085631 134.215140 98.972322 134.369765 98.857103 134.524391 98.739989 134.679017 98.620991 134.833643 98.500121 134.988268 98.377393 135.142894 98.252819 135.297520 98.126411 135.452146 97.998182 135.606771 97.868145 135.761397 97.736312 135.916023 97.602695 136.070648 97.467308 136.225274 97.330163 136.379900 97.191272 136.534526 97.050647 136.689151 96.908303 136.843777 96.764250 136.998403 96.618502 137.153029 96.471071 137.307654 96.321970 137.462280 96.171211 137.616906 96.018807 137.771532 95.864770 137.926157 95.709113 138.080783 95.551849 138.235409 95.392989 138.390035 95.232548 138.544660 95.070536 138.699286 94.906967 138.853912 94.741854 139.008537 94.575208 139.163163 94.407043 139.317789 94.237371 139.472415 94.066204 139.627040 93.893555 139.781666 93.719437 139.936292 93.543862 140.090918 93.366843 140.245543 93.188392 140.400169 93.008523 140.554795 92.827246 140.709421 92.644576 140.864046 92.460524 141.018672 92.275103 141.173298 92.088326 141.327924 91.900205 141.482549 91.710753 141.637175 91.519982 141.791801 91.327905 141.946426 91.134535 142.101052 90.939883 142.255678 90.743963 142.410304 90.546788 142.564929 90.348369 142.719555 90.148719 142.874181 89.947851 143.028807 89.745778 143.183432 89.542511 143.338058 89.338064 143.492684 89.132449 143.647310 88.925678 143.801935 88.717765 143.956561 88.508721 144.111187 88.298560 144.265813 88.087294 144.420438 87.874935 144.575064 87.661496 144.729690 87.446989 144.884315 87.231427 145.038941 87.014824 145.193567 86.797190 145.348193 86.578539 145.502818 86.358883 145.657444 86.138236 145.812070 85.916608 145.966696 85.694014 146.121321 85.470465 146.275947 85.245975 146.430573 85.020554 146.585199 84.794218 146.739824 84.566977 146.894450 84.338844 147.049076 84.109832 147.203702 83.879954 147.358327 83.649222 147.512953 83.417648 147.667579 83.185245 147.822204 82.952026 147.976830 82.718004 148.131456 82.483190 148.286082 82.247597 148.440707 82.011239 148.595333 81.774126 148.749959 81.536273 148.904585 81.297692 149.059210 81.058395 149.213836 80.818394 149.368462 80.577703 149.523088 80.336333 149.677713 80.094298 149.832339 79.851610 149.986965 79.608281 150.141591 79.364325 150.296216 79.119753 150.450842 78.874578 150.605468 78.628813 150.760093 78.382470 150.914719 78.135563 151.069345 77.888102 151.223971 77.640102 151.378596 77.391574 151.533222 77.142531 151.687848 76.892986 151.842474 76.642951 151.997099 76.392439 152.151725 76.141462 152.306351 75.890033 152.460977 75.638165 152.615602 75.385869 152.770228 75.133159 152.924854 74.880047 153.079480 74.626546 153.234105 74.372668 153.388731 74.118426 153.543357 73.863833 153.697982 73.608900 153.852608 73.353641 154.007234 73.098067 154.161860 72.842193 154.316485 72.586029 154.471111 72.329589 154.625737 72.072886 154.780363 71.815931 154.934988 71.558738 155.089614 71.301318 155.244240 71.043685 155.398866 70.785851 155.553491 70.527829 155.708117 70.269631 155.862743 70.011270 156.017369 69.752758 156.171994 69.494108 156.326620 69.235332 156.481246 68.976443 156.635871 68.717454 156.790497 68.458377 156.945123 68.199224 157.099749 67.940009 157.254374 67.680743 157.409000 67.421440 157.563626 67.162112 157.718252 66.902771 157.718252 131.164745"/></g><g class="series serie-1 color-1"><path class="line reactive" d="M3.092515 131.164745 L3.092515 2.640797 3.247140 2.663750 3.401766 2.686712 3.556392 2.709695 3.711018 2.732708 3.865643 2.755762 4.020269 2.778866 4.174895 2.802031 4.329521 2.825268 4.484146 2.848585 4.638772 2.871993 4.793398 2.895503 4.948024 2.919125 5.102649 2.942867 5.257275 2.966742 5.411901 2.990759 5.566527 3.014927 5.721152 3.039258 5.875778 3.063761 6.030404 3.088447 6.185029 3.113325 6.339655 3.138405 6.494281 3.163699 6.648907 3.189216 6.803532 3.214965 6.958158 3.240958 7.112784 3.267204 7.267410 3.293714 7.422035 3.320498 7.576661 3.347565 7.731287 3.374926 7.885913 3.402591 8.040538 3.430571 8.195164 3.458874 8.349790 3.487512 8.504416 3.516495 8.659041 3.545833 8.813667 3.575535 8.968293 3.605612 9.122918 3.636075 9.277544 3.666932 9.432170 3.698195 9.586796 3.729874 9.741421 3.761978 9.896047 3.794519 10.050673 3.827505 10.205299 3.860947 10.359924 3.894855 10.514550 3.929240 10.669176 3.964111 10.823802 3.999479 10.978427 4.035353 11.133053 4.071745 11.287679 4.108663 11.442305 4.146119 11.596930 4.184122 11.751556 4.222682 11.906182 4.261810 12.060807 4.301516 12.215433 4.341809 12.370059 4.382701 12.524685 4.424200 12.679310 4.466318 12.833936 4.509064 12.988562 4.552449 13.143188 4.596482 13.297813 4.641174 13.452439 4.686535 13.607065 4.732575 13.761691 4.779304 13.916316 4.826732 14.070942 4.874870 14.225568 4.923728 14.380194 4.973315 14.534819 5.023642 14.689445 5.074719 14.844071 5.126557 14.998696 5.179164 15.153322 5.232552 15.307948 5.286730 15.462574 5.341710 15.617199 5.397499 15.771825 5.454110 15.926451 5.511552 16.081077 5.569835 16.235702 5.628970 16.390328 5.688966 16.544954 5.749833 16.699580 5.811583 16.854205 5.874224 17.008831 5.937767 17.163457 6.002222 17.318083 6.067600 17.472708 6.133910 17.627334 6.201163 17.781960 6.269368 17.936585 6.338536 18.091211 6.408677 18.245837 6.479801 18.400463 6.551919 18.555088 6.625040 18.709714 6.699174 18.864340 6.774332 19.018966 6.850523 19.173591 6.927759 19.328217 7.006049 19.482843 7.085403 19.637469 7.165831 19.792094 7.247343 19.946720 7.329951 20.101346 7.413662 20.255972 7.498489 20.410597 7.584441 20.565223 7.671528 20.719849 7.759760 20.874474 7.849148 21.029100 7.939701 21.183726 8.031429 21.338352 8.124344 21.492977 8.218454 21.647603 8.313771 21.802229 8.410303 21.956855 8.508063 22.111480 8.607058 22.266106 8.707300 22.420732 8.808799 22.575358 8.911565 22.729983 9.015608 22.884609 9.120938 23.039235 9.227565 23.193861 9.335499 23.348486 9.444752 23.503112 9.555332 23.657738 9.667249 23.812363 9.780515 23.966989 9.895139 24.121615 10.011131 24.276241 10.128501 24.430866 10.247260 24.585492 10.367417 24.740118 10.488984 24.894744 10.611969 25.049369 10.736383 25.203995 10.862236 25.358621 10.989539 25.513247 11.118301 25.667872 11.248533 25.822498 11.380244 25.977124 11.513445 26.131750 11.648147 26.286375 11.784358 26.441001 11.922090 26.595627 12.061352 26.750252 12.202154 26.904878 12.344507 27.059504 12.488421 27.214130 12.633906 27.368755 12.780972 27.523381 12.929629 27.678007 13.079888 27.832633 13.231758 27.987258 13.385250 28.141884 13.540373 28.296510 13.697138 28.451136 13.855555 28.605761 14.015635 28.760387 14.177386 28.915013 14.340820 29.069639 14.505947 29.224264 14.672776 29.378890 14.841318 29.533516 15.011584 29.688141 15.183582 29.842767 15.357323 29.997393 15.532818 30.152019 15.710076 30.306644 15.889108 30.461270 16.069924 30.615896 16.252533 30.770522 16.436947 30.925147 16.623174 31.079773 16.811227 31.234399 17.001113 31.389025 17.192844 31.543650 17.386430 31.698276 17.581881 31.852902 17.779206 32.007528 17.978417 32.162153 18.179523 32.316779 18.382534 32.471405 18.587461 32.626030 18.794314 32.780656 19.003102 32.935282 19.213836 33.089908 19.426527 33.244533 19.641183 33.399159 19.857816 33.553785 20.076435 33.708411 20.297051 33.863036 20.519674 34.017662 20.744313 34.172288 20.970980 34.326914 21.199683 34.481539 21.430434 34.636165 21.663243 34.790791 21.898119 34.945417 22.135072 35.100042 22.374114 35.254668 22.615253 35.409294 22.858500 35.563919 23.103866 35.718545 23.351360 35.873171 23.600993 36.027797 23.852774 36.182422 24.106714 36.337048 24.362822 36.491674 24.621110 36.646300 24.881587 36.800925 25.144263 36.955551 25.409149 37.110177 25.676255 37.264803 25.945590 37.419428 26.217164 37.574054 26.490989 37.728680 26.767074 37.883306 27.045429 38.037931 27.326065 38.192557 27.608991 38.347183 27.894218 38.501808 28.181755 38.656434 28.471614 38.811060 28.763803 38.965686 29.058334 39.120311 29.355216 39.274937 29.654459 39.429563 29.956074 39.584189 30.260071 39.738814 30.566460 39.893440 30.875251 40.048066 31.186453 40.202692 31.500079 40.357317 31.816136 40.511943 32.134636 40.666569 32.455589 40.821195 32.779004 40.975820 33.104893 41.130446 33.433264 41.285072 33.764129 41.439697 34.097497 41.594323 34.433379 41.748949 34.771784 41.903575 35.112717 42.058200 35.456158 42.212826 35.802080 42.367452 36.150459 42.522078 36.501267 42.676703 36.854478 42.831329 37.210068 42.985955 37.568009 43.140581 37.928276 43.295206 38.290843 43.449832 38.655684 43.604458 39.022772 43.759084 39.392083 43.913709 39.763588 44.068335 40.137264 44.222961 40.513084 44.377586 40.891021 44.532212 41.271050 44.686838 41.653145 44.841464 42.037280 44.996089 42.423428 45.150715 42.811564 45.305341 43.201662 45.459967 43.593696 45.614592 43.987640 45.769218 44.383467 45.923844 44.781152 46.078470 45.180669 46.233095 45.581992 46.387721 45.985095 46.542347 46.389951 46.696973 46.796535 46.851598 47.204821 47.006224 47.614783 47.160850 48.026395 47.315475 48.439630 47.470101 48.854463 47.624727 49.270868 47.779353 49.688819 47.933978 50.108290 48.088604 50.529254 48.243230 50.951687 48.397856 51.375561 48.552481 51.800851 48.707107 52.227530 48.861733 52.655574 49.016359 53.084955 49.170984 53.515649 49.325610 53.947628 49.480236 54.380866 49.634862 54.815339 49.789487 55.251020 49.944113 55.687882 50.098739 56.125900 50.253364 56.565048 50.407990 57.005300 50.562616 57.446630 50.717242 57.889011 50.871867 58.332419 51.026493 58.776826 51.181119 59.222207 51.335745 59.668536 51.490370 60.115787 51.644996 60.563934 51.799622 61.012950 51.954248 61.462810 52.108873 61.913489 52.263499 62.364959 52.418125 62.817194 52.572751 63.270170 52.727376 63.723860 52.882002 64.178237 53.036628 64.633277 53.191253 65.088952 53.345879 65.545237 53.500505 66.002106 53.655131 66.459533 53.809756 66.917491 53.964382 67.375956 54.119008 67.834900 54.273634 68.294298 54.428259 68.754125 54.582885 69.214353 54.737511 69.674957 54.892137 70.135910 55.046762 70.597188 55.201388 71.058764 55.356014 71.520611 55.510640 71.982704 55.665265 72.445018 55.819891 72.907525 55.974517 73.370200 56.129142 73.833016 56.283768 74.295949 56.438394 74.758972 56.593020 75.222058 56.747645 75.685183 56.902271 76.148319 57.056897 76.611441 57.211523 77.074524 57.366148 77.537540 57.520774 78.000464 57.675400 78.463269 57.830026 78.925931 57.984651 79.388423 58.139277 79.850718 58.293903 80.312792 58.448529 80.774617 58.603154 81.236169 58.757780 81.697420 58.912406 82.158345 59.067032 82.618918 59.221657 83.079113 59.376283 83.538904 59.530909 83.998265 59.685534 84.457169 59.840160 84.915592 59.994786 85.373507 60.149412 85.830887 60.304037 86.287708 60.458663 86.743942 60.613289 87.199564 60.767915 87.654549 60.922540 88.108869 61.077166 88.562499 61.231792 89.015413 61.386418 89.467585 61.541043 89.918989 61.695669 90.369599 61.850295 90.819389 62.004921 91.268332 62.159546 91.716404 62.314172 92.163578 62.468798 92.609827 62.623423 93.055127 62.778049 93.499450 62.932675 93.942772 63.087301 94.385065 63.241926 94.826305 63.396552 95.266464 63.551178 95.705517 63.705804 96.143439 63.860429 96.580202 64.015055 97.015781 64.169681 97.450150 64.324307 97.883283 64.478932 98.315154 64.633558 98.745738 64.788184 99.175007 64.942810 99.602936 65.097435 100.029499 65.252061 100.454669 65.406687 100.878422 65.561312 101.300731 65.715938 101.721570 65.870564 102.140913 66.025190 102.558734 66.179815 102.975007 66.334441 103.389706 66.489067 103.802804 66.643693 104.214277 66.798318 104.624098 66.952944 105.032241 67.107570 105.438680 67.262196 105.843388 67.416821 106.246341 67.571447 106.647512 67.726073 107.046875 67.880699 107.444403 68.035324 107.840072 68.189950 108.233855 68.344576 108.625726 68.499201 109.015658 68.653827 109.403627 68.808453 109.789606 68.963079 110.173569 69.117704 110.555490 69.272330 110.935342 69.426956 111.313101 69.581582 111.688740 69.736207 112.062233 69.890833 112.433554 70.045459 112.802677 70.200085 113.169576 70.354710 113.534225 70.509336 113.896598 70.663962 114.256669 70.818588 114.614412 70.973213 114.969801 71.127839 115.322810 71.282465 115.673413 71.437090 116.021584 71.591716 116.367297 71.746342 116.710526 71.900968 117.051246 72.055593 117.389429 72.210219 117.725050 72.364845 118.058084 72.519471 118.388503 72.674096 118.716283 72.828722 119.041396 72.983348 119.363818 73.137974 119.683521 73.292599 120.000481 73.447225 120.314671 73.601851 120.626065 73.756477 120.934636 73.911102 121.240360 74.065728 121.543210 74.220354 121.843160 74.374979 122.140184 74.529605 122.434256 74.684231 122.725351 74.838857 123.013441 74.993482 123.298501 75.148108 123.580505 75.302734 123.859428 75.457360 124.135242 75.611985 124.407923 75.766611 124.677444 75.921237 124.943778 76.075863 125.206901 76.230488 125.466786 76.385114 125.723407 76.539740 125.976738 76.694366 126.226753 76.848991 126.473427 77.003617 126.716732 77.158243 126.956643 77.312868 127.193135 77.467494 127.426180 77.622120 127.655754 77.776746 127.881830 77.931371 128.104382 78.085997 128.323384 78.240623 128.538810 78.395249 128.750634 78.549874 128.958830 78.704500 129.163372 78.859126 129.364235 79.013752 129.561391 79.168377 129.754816 79.323003 129.944483 79.477629 130.130366 79.632255 130.312438 79.786880 130.490676 79.941506 130.665051 80.096132 130.835538 80.250757 131.002112 80.405383 131.164745 80.560009 131.323420 80.714635 131.478150 80.869260 131.628953 81.023886 131.775849 81.178512 131.918859 81.333138 132.058003 81.487763 132.193299 81.642389 132.324768 81.797015 132.452431 81.951641 132.576305 82.106266 132.696412 82.260892 132.812772 82.415518 132.925403 82.570144 133.034326 82.724769 133.139561 82.879395 133.241128 83.034021 133.339046 83.188646 133.433335 83.343272 133.524015 83.497898 133.611107 83.652524 133.694628 83.807149 133.774601 83.961775 133.851044 84.116401 133.923976 84.271027 133.993419 84.425652 134.059392 84.580278 134.121915 84.734904 134.181007 84.889530 134.236688 85.044155 134.288979 85.198781 134.337898 85.353407 134.383466 85.508033 134.425704 85.662658 134.464629 85.817284 134.500263 85.971910 134.532625 86.126535 134.561735 86.281161 134.587612 86.435787 134.610278 86.590413 134.629751 86.745038 134.646051 86.899664 134.659198 87.054290 134.669212 87.208916 134.676113 87.363541 134.679921 87.518167 134.680655 87.672793 134.678335 87.827419 134.672982 87.982044 134.664614 88.136670 134.653252 88.291296 134.638916 88.445922 134.621625 88.600547 134.601399 88.755173 134.578259 88.909799 134.552223 89.064424 134.523312 89.219050 134.491546 89.373676 134.456944 89.528302 134.419526 89.682927 134.379313 89.837553 134.336323 89.992179 134.290577 90.146805 134.242094 90.301430 134.190895 90.456056 134.136999 90.610682 134.080426 90.765308 134.021196 90.919933 133.959329 91.074559 133.894844 91.229185 133.827761 91.383811 133.758101 91.538436 133.685883 91.693062 133.611126 91.847688 133.533851 92.002313 133.454078 92.156939 133.371826 92.311565 133.287115 92.466191 133.199965 92.620816 133.110396 92.775442 133.018428 92.930068 132.924080 93.084694 132.827372 93.239319 132.728324 93.393945 132.626957 93.548571 132.523289 93.703197 132.417341 93.857822 132.309132 94.012448 132.198683 94.167074 132.086012 94.321700 131.971141 94.476325 131.854088 94.630951 131.734874 94.785577 131.613519 94.940202 131.490041 95.094828 131.364462 95.249454 131.236801 95.404080 131.107077 95.558705 130.975311 95.713331 130.841522 95.867957 130.705731 96.022583 130.567957 96.177208 130.428219 96.331834 130.286538 96.486460 130.142934 96.641086 129.997426 96.795711 129.850035 96.950337 129.700779 97.104963 129.549679 97.259589 129.396755 97.414214 129.242027 97.568840 129.085514 97.723466 128.927236 97.878091 128.767213 98.032717 128.605465 98.187343 128.442011 98.341969 128.276872 98.496594 128.110068 98.651220 127.941617 98.805846 127.771541 98.960472 127.599858 99.115097 127.426589 99.269723 127.251753 99.424349 127.075371 99.578975 126.897462 99.733600 126.718046 99.888226 126.537143 100.042852 126.354772 100.197478 126.170954 100.352103 125.985708 100.506729 125.799054 100.661355 125.611012 100.815980 125.421602 100.970606 125.230843 101.125232 125.038756 101.279858 124.845360 101.434483 124.650675 101.589109 124.454722 101.743735 124.257519 101.898361 124.059086 102.052986 123.859444 102.207612 123.658612 102.362238 123.456610 102.516864 123.253458 102.671489 123.049176 102.826115 122.843783 102.980741 122.637300 103.135367 122.429746 103.289992 122.221141 103.444618 122.011505 103.599244 121.800857 103.753869 121.589219 103.908495 121.376608 104.063121 121.163046 104.217747 120.948551 104.372372 120.733145 104.526998 120.516846 104.681624 120.299675 104.836250 120.081651 104.990875 119.862794 105.145501 119.643124 105.300127 119.422661 105.454753 119.201425 105.609378 118.979435 105.764004 118.756711 105.918630 118.533274 106.073256 118.309142 106.227881 118.084337 106.382507 117.858877 106.537133 117.632782 106.691758 117.406073 106.846384 117.178769 107.001010 116.950889 107.155636 116.722455 107.310261 116.493485 107.464887 116.264000 107.619513 116.034019 107.774139 115.803562 107.928764 115.572649 108.083390 115.341299 108.238016 115.109533 108.392642 114.877371 108.547267 114.644832 108.701893 114.411936 108.856519 114.178703 109.011145 113.945152 109.165770 113.711305 109.320396 113.477179 109.475022 113.242796 109.629647 113.008175 109.784273 112.773335 109.938899 112.538298 110.093525 112.303082 110.248150 112.067707 110.402776 111.832193 110.557402 111.596561 110.712028 111.360829 110.866653 111.125018 111.021279 110.889148 111.175905 110.653238 111.330531 110.417308 111.485156 110.181378 111.639782 109.945468 111.794408 109.709597 111.949034 109.473786 112.103659 109.238055 112.258285 109.002422 112.412911 108.766909 112.567536 108.531534 112.722162 108.296318 112.876788 108.061280 113.031414 107.826441 113.186039 107.591820 113.340665 107.357436 113.495291 107.123311 113.649917 106.889463 113.804542 106.655913 113.959168 106.422680 114.113794 106.189783 114.268420 105.957244 114.423045 105.725082 114.577671 105.493316 114.732297 105.261967 114.886923 105.031054 115.041548 104.800597 115.196174 104.570616 115.350800 104.341130 115.505425 104.112160 115.660051 103.883726 115.814677 103.655847 115.969303 103.428543 116.123928 103.201833 116.278554 102.975739 116.433180 102.750279 116.587806 102.525473 116.742431 102.301342 116.897057 102.077904 117.051683 101.855181 117.206309 101.633191 117.360934 101.411955 117.515560 101.191492 117.670186 100.971822 117.824812 100.752965 117.979437 100.534941 118.134063 100.317770 118.288689 100.101471 118.443314 99.886064 118.597940 99.671570 118.752566 99.458008 118.907192 99.245397 119.061817 99.033758 119.216443 98.823107 119.371069 98.613443 119.525695 98.404762 119.680320 98.197062 119.834946 97.990336 119.989572 97.784583 120.144198 97.579797 120.298823 97.375975 120.453449 97.173112 120.608075 96.971206 120.762701 96.770251 120.917326 96.570244 121.071952 96.371181 121.226578 96.173058 121.381203 95.975870 121.535829 95.779615 121.690455 95.584288 121.845081 95.389885 121.999706 95.196402 122.154332 95.003835 122.308958 94.812180 122.463584 94.621433 122.618209 94.431591 122.772835 94.242649 122.927461 94.054603 123.082087 93.867449 123.236712 93.681184 123.391338 93.495803 123.545964 93.311303 123.700590 93.127679 123.855215 92.944927 124.009841 92.763044 124.164467 92.582026 124.319092 92.401868 124.473718 92.222567 124.628344 92.044119 124.782970 91.866519 124.937595 91.689764 125.092221 91.513850 125.246847 91.338772 125.401473 91.164528 125.556098 90.991112 125.710724 90.818521 125.865350 90.646751 126.019976 90.475798 126.174601 90.305658 126.329227 90.136327 126.483853 89.967802 126.638479 89.800077 126.793104 89.633149 126.947730 89.467015 127.102356 89.301670 127.256981 89.137110 127.411607 88.973331 127.566233 88.810330 127.720859 88.648102 127.875484 88.486643 128.030110 88.325950 128.184736 88.166018 128.339362 88.006844 128.493987 87.848423 128.648613 87.690752 128.803239 87.533826 128.957865 87.377642 129.112490 87.222196 129.267116 87.067483 129.421742 86.913501 129.576368 86.760243 129.730993 86.607708 129.885619 86.455890 130.040245 86.304787 130.194870 86.154393 130.349496 86.004705 130.504122 85.855719 130.658748 85.707431 130.813373 85.559837 130.967999 85.412934 131.122625 85.266716 131.277251 85.121180 131.431876 84.976323 131.586502 84.832140 131.741128 84.688627 131.895754 84.545780 132.050379 84.403595 132.205005 84.262069 132.359631 84.121198 132.514257 83.980976 132.668882 83.841401 132.823508 83.702469 132.978134 83.564175 133.132759 83.426516 133.287385 83.289487 133.442011 83.153085 133.596637 83.017305 133.751262 82.882144 133.905888 82.747598 134.060514 82.613663 134.215140 82.480334 134.369765 82.347608 134.524391 82.215481 134.679017 82.083949 134.833643 81.953008 134.988268 81.822654 135.142894 81.692883 135.297520 81.563691 135.452146 81.435073 135.606771 81.307027 135.761397 81.179548 135.916023 81.052633 136.070648 80.926276 136.225274 80.800475 136.379900 80.675225 136.534526 80.550522 136.689151 80.426362 136.843777 80.302742 136.998403 80.179657 137.153029 80.057104 137.307654 79.935078 137.462280 79.813576 137.616906 79.692593 137.771532 79.572126 137.926157 79.452170 138.080783 79.332722 138.235409 79.213778 138.390035 79.095333 138.544660 78.977384 138.699286 78.859927 138.853912 78.742958 139.008537 78.626472 139.163163 78.510467 139.317789 78.394937 139.472415 78.279879 139.627040 78.165289 139.781666 78.051163 139.936292 77.937498 140.090918 77.824288 140.245543 77.711530 140.400169 77.599221 140.554795 77.487356 140.709421 77.375931 140.864046 77.264942 141.018672 77.154385 141.173298 77.044257 141.327924 76.934553 141.482549 76.825270 141.637175 76.716403 141.791801 76.607948 141.946426 76.499902 142.101052 76.392260 142.255678 76.285019 142.410304 76.178175 142.564929 76.071723 142.719555 75.965660 142.874181 75.859981 143.028807 75.754684 143.183432 75.649763 143.338058 75.545214 143.492684 75.441035 143.647310 75.337220 143.801935 75.233767 143.956561 75.130670 144.111187 75.027926 144.265813 74.925532 144.420438 74.823482 144.575064 74.721773 144.729690 74.620402 144.884315 74.519363 145.038941 74.418654 145.193567 74.318270 145.348193 74.218207 145.502818 74.118462 145.657444 74.019030 145.812070 73.919907 145.966696 73.821089 146.121321 73.722573 146.275947 73.624354 146.430573 73.526429 146.585199 73.428794 146.739824 73.331443 146.894450 73.234375 147.049076 73.137584 147.203702 73.041067 147.358327 72.944819 147.512953 72.848837 147.667579 72.753117 147.822204 72.657655 147.976830 72.562446 148.131456 72.467487 148.286082 72.372774 148.440707 72.278304 148.595333 72.184071 148.749959 72.090072 148.904585 71.996303 149.059210 71.902760 149.213836 71.809439 149.368462 71.716336 149.523088 71.623448 149.677713 71.530770 149.832339 71.438297 149.986965 71.346028 150.141591 71.253956 150.296216 71.162079 150.450842 71.070392 150.605468 70.978892 150.760093 70.887573 150.914719 70.796434 151.069345 70.705469 151.223971 70.614674 151.378596 70.524046 151.533222 70.433581 151.687848 70.343274 151.842474 70.253122 151.997099 70.163121 152.151725 70.073266 152.306351 69.983554 152.460977 69.893981 152.615602 69.804543 152.770228 69.715236 152.924854 69.626055 153.079480 69.536998 153.234105 69.448059 153.388731 69.359236 153.543357 69.270524 153.697982 69.181918 153.852608 69.093416 154.007234 69.005013 154.161860 68.916705 154.316485 68.828488 154.471111 68.740359 154.625737 68.652313 154.780363 68.564346 154.934988 68.476454 155.089614 68.388634 155.244240 68.300881 155.398866 68.213192 155.553491 68.125562 155.708117 68.037988 155.862743 67.950465 156.017369 67.862990 156.171994 67.775559 156.326620 67.688167 156.481246 67.600811 156.635871 67.513487 156.790497 67.426190 156.945123 67.338917 157.099749 67.251664 157.254374 67.164427 157.409000 67.077202 157.563626 66.989984 157.718252 66.902771 157.718252 131.164745"/></g></g><g class="titles"/><g class="plot overlay" transform="translate(112, 20)"><g class="series serie-0 color-0"><g class="dots"><circle class="dot reactive tooltip-trigger" cx="3.0925147382480866" cy="99.03375808357137" r="2.5"/><desc class="value">1</desc><desc class="x top">3.0925147382480866</desc><desc class="y top">99.03375808357137</desc><desc class="x_label">one</desc></g><g class="dots"><circle class="dot reactive tooltip-trigger" cx="41.748948966349175" cy="66.90277110794361" r="2.5"/><desc class="value">2</desc><desc class="x ">41.748948966349175</desc><desc class="y ">66.90277110794361</desc><desc class="x_label">two</desc></g><g class="dots"><circle class="dot reactive tooltip-trigger" cx="80.40538319445025" cy="34.771784132315844" r="2.5"/><desc class="value">3</desc><desc class="x ">80.40538319445025</desc><desc class="y ">34.771784132315844</desc><desc class="x_label">three</desc></g><g class="dots"><circle class="dot reactive tooltip-trigger" cx="119.06181742255134" cy="99.03375808357137" r="2.5"/><desc class="value">1</desc><desc class="x left top">119.06181742255134</desc><desc class="y left top">99.03375808357137</desc><desc class="x_label">four</desc></g><g class="dots"><circle class="dot reactive tooltip-trigger" cx="157.7182516506524" cy="66.90277110794361" r="2.5"/><desc class="value">2</desc><desc class="x left">157.7182516506524</desc><desc class="y left">66.90277110794361</desc><desc class="x_label">five</desc></g></g><g class="series serie-1 color-1"><g class="dots"><circle class="dot reactive tooltip-trigger" cx="3.0925147382480866" cy="2.640797156688052" r="2.5"/><desc class="value">4</desc><desc class="x ">3.0925147382480866</desc><desc class="y ">2.640797156688052</desc><desc class="x_label">one</desc></g><g class="dots"><circle class="dot reactive tooltip-trigger" cx="41.748948966349175" cy="34.771784132315844" r="2.5"/><desc class="value">3</desc><desc class="x ">41.748948966349175</desc><desc class="y ">34.771784132315844</desc><desc class="x_label">two</desc></g><g class="dots"><circle class="dot reactive tooltip-trigger" cx="80.40538319445025" cy="131.16474505919916" r="2.5"/><desc class="value">0</desc><desc class="x top">80.40538319445025</desc><desc class="y top">131.16474505919916</desc><desc class="x_label">three</desc></g><g class="dots"><circle class="dot reactive tooltip-trigger" cx="119.06181742255134" cy="99.03375808357137" r="2.5"/><desc class="value">1</desc><desc class="x left top">119.06181742255134</desc><desc class="y left top">99.03375808357137</desc><desc class="x_label">four</desc></g><g class="dots"><circle class="dot reactive tooltip-trigger" cx="157.7182516506524" cy="66.90277110794361" r="2.5"/><desc class="value">2</desc><desc class="x left">157.7182516506524</desc><desc class="y left">66.90277110794361</desc><desc class="x_label">five</desc></g></g></g><g class="plot text-overlay" transform="translate(112, 20)"><g class="series serie-0 color-0"/><g class="series serie-1 color-1"/></g><g class="plot tooltip-overlay" transform="translate(112, 20)"><g class="tooltip" style="opacity: 0" transform="translate(0 0)"><rect class="tooltip-box" height="0" rx="0" ry="0" width="0"/><g class="text"/></g></g><g class="legends" transform="translate(10, 30)"><g class="legend reactive activate-serie" id="activate-serie-0"><rect class="color-0 reactive" height="12" width="12" x="0.0" y="1.0"/><text x="17.0" y="11.2">alpha</text></g><g class="legend reactive activate-serie" id="activate-serie-1"><rect class="color-1 reactive" height="12" width="12" x="0.0" y="22.0"/><text x="17.0" y="32.2">beta</text></g></g><g class="legends" transform="translate(282, 30)"/></g></svg>